#!OML:ASF I:\Actors\actors\Patient Classification 2\Patient 1\Session 1\actor1.ASF
:FULLY-SPECIFIED
:DEGREES
577
root -2.80897 17.5021 9.53621 -5.03894 2.8005 -9.55561
lowerback 2.37561 3.3325 -8.19078
upperback 1.13643 4.2357 -3.37239
thorax -0.489459 2.0965 0.959317
lowerneck -3.60901 -4.39843 0.13175
upperneck 43.5323 -11.6533 12.292
head 17.7563 -3.46473 3.92974
rclavicle -2.32578e-014 -1.59028e-014
rhumerus -72.4073 23.0149 -100.741
rradius 78.0275
rwrist 13.8853
rhand -5.49359 -49.3146
rfingers 7.12502
rthumb 20.3191 -78.2717
lclavicle -2.32578e-014 -1.59028e-014
lhumerus -49.6948 5.33248 74.8322
lradius 63.2719
lwrist 17.3596
lhand -31.4088 -70.7079
lfingers 7.12502
lthumb -4.67785 -40.7795
rfemur -2.43153 -6.59712 31.1629
rtibia 39.5185
rfoot -31.3573 2.28546
rtoes -5.8148
lfemur -9.03678 -2.13309 0.730923
ltibia 47.9586
lfoot -30.4163 1.23607
ltoes -59.0521
578
root -2.88192 17.5205 9.51455 -4.2408 3.29925 -10.132
lowerback 2.4296 3.35955 -9.2494
upperback 1.02659 4.22915 -3.32867
thorax -0.710095 2.09967 1.57228
lowerneck -3.90059 -4.50794 -0.369172
upperneck 42.6249 -11.9779 13.2319
head 17.4689 -3.5981 4.34878
rclavicle -9.54166e-015 -6.36111e-015
rhumerus -74.2076 22.7906 -99.5618
rradius 79.8096
rwrist 13.9614
rhand -5.62919 -49.464
rfingers 7.12502
rthumb 20.1888 -78.4349
lclavicle -9.54166e-015 -6.36111e-015
lhumerus -50.7618 8.02759 72.0485
lradius 64.1684
lwrist 18.3758
lhand -31.6638 -70.671
lfingers 7.12502
lthumb -4.92413 -40.7482
rfemur -3.22334 -7.04767 32.0332
rtibia 38.9035
rfoot -30.9025 2.51584
rtoes -5.16428
lfemur -10.3062 -2.75817 1.51429
ltibia 48.0327
lfoot -30.2775 1.57153
ltoes -59.0016
579
root -2.95071 17.539 9.48432 -3.48114 3.80638 -10.6264
lowerback 2.52621 3.38043 -10.2648
upperback 1.01902 4.2162 -3.27659
thorax -0.844851 2.09639 2.17092
lowerneck -4.22939 -4.57986 -0.792794
upperneck 41.7761 -12.1459 13.902
head 17.1774 -3.67748 4.64557
rclavicle 8.54774e-015 0
rhumerus -76.0732 24.0728 -99.27
rradius 80.9866
rwrist 12.8363
rhand -7.37599 -49.9036
rfingers 7.12502
rthumb 18.5092 -79.043
lclavicle 8.54774e-015 0
lhumerus -51.6571 10.6143 69.2774
lradius 65.259
lwrist 19.5557
lhand -31.6801 -70.3623
lfingers 7.12502
lthumb -4.93985 -40.4398
rfemur -3.99446 -7.50109 32.7897
rtibia 38.2621
rfoot -30.4474 2.87332
rtoes -4.22097
lfemur -11.5559 -3.42582 2.20159
ltibia 48.0943
lfoot -30.1787 2.07159
ltoes -59.1398
580
root -3.01523 17.5572 9.44571 -2.69511 4.37365 -11.1199
lowerback 2.65545 3.34784 -11.1251
upperback 1.0254 4.13169 -3.17019
thorax -0.966852 2.05837 2.74379
lowerneck -4.62907 -4.57154 -1.53269
upperneck 40.973 -12.1175 14.5493
head 16.9273 -3.71868 5.02103
rclavicle -5.36719e-015 1.90833e-014
rhumerus -77.8288 24.547 -98.2538
rradius 82.3535
rwrist 12.6688
rhand -9.64572 -49.9553
rfingers 7.12502
rthumb 16.3248 -79.2882
lclavicle -5.36719e-015 1.90833e-014
lhumerus -52.5449 12.9717 66.6545
lradius 66.5371
lwrist 20.7859
lhand -31.7163 -70.0578
lfingers 7.12502
lthumb -4.97481 -40.1362
rfemur -4.83305 -8.01979 33.5626
rtibia 37.5901
rfoot -29.9723 3.20987
rtoes -2.98931
lfemur -12.885 -4.12627 2.89444
ltibia 48.1578
lfoot -30.0314 2.66052
ltoes -59.2822
581
root -3.07715 17.5737 9.39791 -1.87743 5.01942 -11.7256
lowerback 2.87683 3.50144 -11.6724
upperback 1.01462 4.28297 -3.19994
thorax -1.15811 2.14175 2.98492
lowerneck -4.76422 -4.75635 -1.91941
upperneck 39.8339 -12.4306 15.3545
head 16.4829 -3.85264 5.32294
rclavicle -3.29983e-014 4.13472e-014
rhumerus -79.5668 25.1083 -97.6605
rradius 83.2939
rwrist 12.5921
rhand -11.6493 -49.7283
rfingers 7.12502
rthumb 14.3949 -79.2091
lclavicle -3.29983e-014 4.13472e-014
lhumerus -52.9423 14.1092 64.3262
lradius 67.8808
lwrist 21.98
lhand -32.2412 -69.2396
lfingers 7.12502
lthumb -5.48164 -39.3305
rfemur -5.75666 -8.63996 34.4976
rtibia 36.885
rfoot -29.5363 3.47152
rtoes -1.55161
lfemur -14.3336 -4.79395 3.76322
ltibia 48.2256
lfoot -29.7715 3.06481
ltoes -59.1387
582
root -3.13638 17.5921 9.34249 -1.04747 5.76735 -12.2773
lowerback 3.23281 3.74984 -12.1109
upperback 1.01525 4.53839 -3.31701
thorax -1.41575 2.27976 3.05809
lowerneck -4.91231 -5.06518 -2.06027
upperneck 38.749 -12.9306 16.0416
head 16.0966 -4.04147 5.49434
rclavicle 8.34896e-015 2.54444e-014
rhumerus -80.9012 25.2843 -96.3234
rradius 84.386
rwrist 15.4009
rhand -8.47214 -48.9207
rfingers 7.12502
rthumb 17.4545 -78.157
lclavicle 8.34896e-015 2.54444e-014
lhumerus -52.8514 14.4965 62.2912
lradius 69.2267
lwrist 22.9728
lhand -30.0101 -69.4709
lfingers 7.12502
lthumb -3.32723 -39.5172
rfemur -6.73568 -9.39609 35.3795
rtibia 36.1669
rfoot -29.0632 3.78742
rtoes -0.310449
lfemur -15.8861 -5.43889 4.60936
ltibia 48.2753
lfoot -29.4996 3.41966
ltoes -58.9161
583
root -3.19036 17.6167 9.2833 -0.20166 6.60475 -12.6161
lowerback 3.69765 4.00064 -12.4854
upperback 1.05884 4.78026 -3.52189
thorax -1.67708 2.40976 2.99615
lowerneck -5.34746 -5.34199 -2.23592
upperneck 37.9207 -13.3727 16.5968
head 15.9145 -4.20188 5.63551
rclavicle -4.85035e-014 6.36111e-014
rhumerus -82.3621 25.7331 -95.4751
rradius 85.408
rwrist 17.1075
rhand -7.23037 -48.2001
rfingers 7.12502
rthumb 18.6492 -77.3261
lclavicle -4.85035e-014 6.36111e-014
lhumerus -52.3967 14.5434 60.4854
lradius 70.5639
lwrist 23.6517
lhand -29.1121 -68.3923
lfingers 7.12502
lthumb -2.45998 -38.4267
rfemur -7.76161 -10.2473 36.0168
rtibia 35.4592
rfoot -28.4657 4.17407
rtoes 0.742101
lfemur -17.4967 -6.08598 5.22155
ltibia 48.2808
lfoot -29.2276 3.87095
ltoes -58.8495
584
root -3.23764 17.6452 9.22024 0.644197 7.481 -12.8968
lowerback 4.269 4.23353 -12.6286
upperback 1.14066 4.9896 -3.76854
thorax -1.93119 2.52136 2.75889
lowerneck -5.77168 -5.57224 -2.66795
upperneck 37.0005 -13.7308 17.3242
head 15.7179 -4.35052 5.90776
rclavicle -4.53229e-014 -3.18055e-014
rhumerus -83.9456 26.5421 -95.1314
rradius 86.391
rwrist 17.9882
rhand -6.99319 -48.0373
rfingers 7.12502
rthumb 18.8774 -77.1413
lclavicle -4.53229e-014 -3.18055e-014
lhumerus -51.6615 14.2391 58.8979
lradius 71.9649
lwrist 24.0517
lhand -28.8472 -66.5515
lfingers 7.12502
lthumb -2.20417 -36.5832
rfemur -8.83403 -11.1476 36.5868
rtibia 34.7783
rfoot -27.7895 4.58332
rtoes 1.73129
lfemur -19.114 -6.74419 5.7739
ltibia 48.2442
lfoot -28.9153 4.38682
ltoes -58.9549
585
root -3.27865 17.6726 9.14914 1.48805 8.38942 -13.2673
lowerback 4.8878 4.44877 -12.5296
upperback 1.26164 5.18273 -3.95832
thorax -2.15154 2.62118 2.44753
lowerneck -5.95184 -5.8073 -3.13221
upperneck 35.8335 -13.9848 17.956
head 15.3153 -4.49328 6.13378
rclavicle 3.97569e-015 6.36111e-015
rhumerus -85.656 27.7257 -95.1265
rradius 87.3652
rwrist 18.6592
rhand -6.9378 -47.927
rfingers 7.12502
rthumb 18.9306 -77.0258
lclavicle 3.97569e-015 6.36111e-015
lhumerus -50.6253 13.4971 57.6228
lradius 73.4592
lwrist 24.3053
lhand -28.697 -63.6128
lfingers 7.12502
lthumb -2.05912 -33.643
rfemur -9.98639 -12.1497 37.2712
rtibia 34.1392
rfoot -27.0234 5.04288
rtoes 2.62512
lfemur -20.7772 -7.37645 6.46109
ltibia 48.1879
lfoot -28.5834 4.84824
ltoes -59.1063
586
root -3.31381 17.6958 9.06978 2.31034 9.32802 -13.7159
lowerback 5.49816 4.62425 -12.2531
upperback 1.45119 5.34542 -4.03576
thorax -2.28326 2.69916 2.16298
lowerneck -6.06786 -6.00173 -3.57028
upperneck 34.6389 -14.0769 18.3389
head 14.8358 -4.59257 6.26097
rclavicle 6.67916e-014 -6.67916e-014
rhumerus -87.6799 29.4388 -95.615
rradius 88.4376
rwrist 18.9103
rhand -6.46727 -47.2639
rfingers 7.12502
rthumb 19.3831 -76.3178
lclavicle 6.67916e-014 -6.67916e-014
lhumerus -49.3609 12.4069 56.6553
lradius 75.0266
lwrist 24.5198
lhand -28.1266 -59.3244
lfingers 7.12502
lthumb -1.50817 -29.35
rfemur -11.2071 -13.2226 38.0697
rtibia 33.5407
rfoot -26.1942 5.54016
rtoes 3.29699
lfemur -22.5015 -7.9559 7.28656
ltibia 48.1356
lfoot -28.2048 5.09737
ltoes -59.1488
587
root -3.3436 17.7162 8.9845 3.09958 10.267 -14.0922
lowerback 6.16776 4.79852 -11.8832
upperback 1.67763 5.51011 -4.09317
thorax -2.40032 2.77606 1.844
lowerneck -6.21416 -6.20133 -4.08603
upperneck 33.6131 -14.1803 18.6858
head 14.4681 -4.70167 6.40079
rclavicle 4.21423e-014 9.54166e-015
rhumerus -90.1668 31.3785 -96.7981
rradius 89.7172
rwrist 18.1591
rhand -4.58742 -45.639
rfingers 7.12502
rthumb 21.1898 -74.5009
lclavicle 4.21423e-014 9.54166e-015
lhumerus -47.8776 10.8805 55.813
lradius 76.6145
lwrist 24.6858
lhand -26.7343 -54.0693
lfingers 7.12502
lthumb -0.163459 -24.0896
rfemur -12.4345 -14.2803 38.8031
rtibia 32.9725
rfoot -25.3543 6.13836
rtoes 4.08667
lfemur -24.2203 -8.56064 8.04812
ltibia 48.0812
lfoot -27.7951 5.23945
ltoes -59.0825
